<?xml version="1.0" encoding="utf-8"?>
<!-- Generator: Adobe Illustrator 17.0.0, SVG Export Plug-In . SVG Version: 6.00 Build 0)  -->
<!DOCTYPE svg PUBLIC "-//W3C//DTD SVG 1.1//EN" "http://www.w3.org/Graphics/SVG/1.1/DTD/svg11.dtd">
<svg version="1.1" id="Capa_1" xmlns="http://www.w3.org/2000/svg" xmlns:xlink="http://www.w3.org/1999/xlink" x="0px" y="0px"
	 width="64px" height="64px" viewBox="0 0 64 64" enable-background="new 0 0 64 64" xml:space="preserve">
<path fill-rule="evenodd" clip-rule="evenodd" d="M53.023,13.836c-0.91-0.023-1.979,0.185-2.834,1.025l-9.158,7.753
	c-0.843,0.714-2.362,0.971-3.394,0.575l-2.189-0.842c-1.031-0.396-1.362-1.456-0.74-2.369l1.553-2.275
	c0.3-0.42,0.179-0.743-0.067-0.979c-0.436-0.417-1.616-0.753-2.333-0.446c-0.66,0.281-1.145,0.81-1.145,0.81l-1.594,1.728
	c-0.748,0.812-2.235,1.306-3.321,1.102l-3.736-0.698c-1.086-0.203-1.486-1.014-0.896-1.81l1.07-1.441
	c0.362-0.49,0.456-0.899,0.417-1.229c-0.087-0.729-1.457-1.217-2.291-1.007c-0.834,0.21-2.03,1.254-2.758,2.085l-0.333,0.381
	c-0.727,0.831-2.212,1.473-3.316,1.433l-3.14-0.115c-1.105-0.04-2.473-0.471-3.138-0.415c-0.336,0.028-0.675,0.208-0.903,0.707
	c0,0-0.228,0.57-0.07,1.121c0.172,0.606,1.524,1.248,2.494,1.777c4.271,2.329,13.462,7.189,17.327,9.229
	c0.977,0.516,1.1,1.528,0.274,2.262l-11.024,9.792c-0.825,0.733-2.365,1.116-3.438,0.855l-1.142-0.278
	c-1.073-0.261-2.373-0.519-2.819-0.298c-0.446,0.223-1.456,1.046-1.684,1.991c-0.227,0.945,1.341,2.101,2.362,2.52
	c1.223,0.502,2.715,1.026,3.615,1.999c1.162,1.253,1.899,2.805,2.339,4.006c0.38,1.037,1.023,2.604,1.815,2.479
	c0.682-0.105,1.239-0.706,1.239-0.706s0.283-0.31,0.632-0.692c0.349-0.383,0.421-1.563,0.161-2.637l-0.175-0.719
	c-0.26-1.073,0.22-2.514,1.071-3.217l12.587-10.4c0.852-0.704,1.898-0.453,2.339,0.559l7.926,18.239
	c0.44,1.013,2.023,2.373,2.369,1.324c0.194-0.59,0.248-1.603-0.002-3.304c0,0-0.084-0.801-0.188-1.788
	c-0.104-0.986,0.51-2.348,1.37-3.04l2.564-2.062c0,0,0.754-0.567,1.037-1.538c0.29-0.998-0.503-2.346-1.149-2.249
	c-0.647,0.098-1.818,0.749-2.702,1.159c-0.884,0.41-1.66-0.151-1.734-1.253l-0.134-2.004c-0.074-1.102,0.623-2.475,1.556-3.065
	l0.665-0.42c0.933-0.591,2.318-1.758,2.66-2.808c0.001-0.003,0.002-0.007,0.003-0.01c0.339-1.051-0.714-2.363-1.492-2.421
	c-0.778-0.059-2.23,0.472-3.284,0.748c-1.055,0.276-1.998-0.39-2.108-1.489l-0.102-1.011c-0.11-1.1,0.46-2.596,1.273-3.344
	l7.948-7.301c0.813-0.748,1.991-2.128,2.148-3.221c0.02-0.138,0.033-0.28,0.04-0.427C55.397,15.066,54.127,13.864,53.023,13.836z"/>
</svg>
