<?xml version="1.0" encoding="utf-8"?>
<!-- Generator: Adobe Illustrator 17.0.0, SVG Export Plug-In . SVG Version: 6.00 Build 0)  -->
<!DOCTYPE svg PUBLIC "-//W3C//DTD SVG 1.1//EN" "http://www.w3.org/Graphics/SVG/1.1/DTD/svg11.dtd">
<svg version="1.1" id="Capa_1" xmlns="http://www.w3.org/2000/svg" xmlns:xlink="http://www.w3.org/1999/xlink" x="0px" y="0px"
	 width="64px" height="64px" viewBox="0 0 64 64" enable-background="new 0 0 64 64" xml:space="preserve">
<path d="M43.164,11.156c-0.538,0.034-1.04,0.284-1.391,0.693l-2.061,2.4c-0.719,0.838-2.026,0.986-2.998,0.459
	c-2.28-1.236-4.887-1.943-7.663-1.943c-8.924,0-16.157,7.233-16.157,16.156c0,8.924,7.233,16.156,16.157,16.156
	c8.924,0,16.157-7.232,16.157-16.156c0-3.27-0.976-6.31-2.648-8.852c-0.281-0.428-0.461-0.916-0.517-1.382
	c-0.098-0.815,0.828-1.944,1.544-1.783c0.383,0.086,0.768,0.336,1.065,0.748c2.348,3.255,3.646,7.198,3.646,11.269
	c0,10.613-8.634,19.248-19.246,19.248c-5.301,0-10.239-2.109-13.905-5.939c-0.765-0.799-2.03-0.828-2.828-0.062
	c-0.798,0.764-0.826,2.029-0.062,2.828c3.645,3.809,8.333,6.205,13.448,6.934c1.093,0.156,1.972,0.261,1.953,0.339
	c-0.011,0.046-0.02,0.094-0.02,0.144c0,0.686-0.896,1.243-2,1.243h-4.169c-1.104,0-2,0.542-2,1.21c0,0.668,0.896,1.21,2,1.21h14.758
	c1.105,0,2-0.542,2-1.21c0-0.668-0.895-1.21-2-1.21h-4.169c-1.104,0-2-0.557-2-1.243c0-0.047-0.008-0.092-0.019-0.135
	c-0.018-0.074,0.862-0.16,1.958-0.299c11.433-1.452,20.301-11.236,20.301-23.057c0-6.563-2.794-12.853-7.667-17.254
	C44.231,11.307,43.705,11.121,43.164,11.156z"/>
</svg>
