<?xml version="1.0" encoding="utf-8"?>
<!-- Generator: Adobe Illustrator 17.0.0, SVG Export Plug-In . SVG Version: 6.00 Build 0)  -->
<!DOCTYPE svg PUBLIC "-//W3C//DTD SVG 1.1//EN" "http://www.w3.org/Graphics/SVG/1.1/DTD/svg11.dtd">
<svg version="1.1" id="Capa_1" xmlns="http://www.w3.org/2000/svg" xmlns:xlink="http://www.w3.org/1999/xlink" x="0px" y="0px"
	 width="64px" height="64px" viewBox="0 0 64 64" enable-background="new 0 0 64 64" xml:space="preserve">
<path fill-rule="evenodd" clip-rule="evenodd" d="M40.664,36.75c-0.417,0.404-1.377,0.087-2.146-0.707l-0.634-0.655
	c-0.768-0.794-0.91-2.197-0.446-3.199c0.989-2.135,1.547-4.508,1.547-7.016c0-9.293-7.532-16.825-16.825-16.825
	c-9.292,0-16.825,7.532-16.825,16.825c0,9.292,7.532,16.825,16.825,16.825c3.909,0,7.505-1.334,10.361-3.57
	c0.87-0.681,2.121-0.679,2.889,0.115l0.254,0.263c0.768,0.794,1.052,1.765,0.634,2.169c-0.417,0.404-0.133,1.374,0.635,2.168
	l10.708,11.071c0.768,0.794,2.034,0.815,2.828,0.047l3.005-2.907c0.794-0.768,0.815-2.034,0.047-2.828L42.809,37.457
	C42.041,36.663,41.081,36.346,40.664,36.75z M22.16,36.857c-6.454,0-11.684-5.23-11.684-11.684c0-6.454,5.23-11.684,11.684-11.684
	c6.454,0,11.684,5.23,11.684,11.684C33.844,31.626,28.614,36.857,22.16,36.857z"/>
</svg>
